<?xml version="1.0" encoding="UTF-8"?>
<svg width="220" height="50" viewBox="0 0 220 50" fill="none" xmlns="http://www.w3.org/2000/svg">
    <path d="M14.7283 39.486C12.2083 39.486 10.4263 38.262 9.38226 35.814L2.03826 18.048C1.31826 16.392 1.30026 14.97 1.98426 13.782C2.66826 12.558 3.98226 11.946 5.92626 11.946C7.04226 11.946 7.94226 12.216 8.62626 12.756C9.34626 13.26 10.0123 14.268 10.6243 15.78L15.2143 27.822L20.1283 14.754C20.8483 12.882 22.1443 11.946 24.0163 11.946C25.0603 11.946 25.8883 12.18 26.5003 12.648C27.1123 13.116 27.5983 13.818 27.9583 14.754L32.9263 28.092L37.6783 15.456C38.1823 14.124 38.8303 13.206 39.6223 12.702C40.4143 12.198 41.2603 11.946 42.1603 11.946C43.9963 11.946 45.1843 12.576 45.7243 13.836C46.2643 15.06 46.1923 16.482 45.5083 18.102L38.2183 35.76C37.1743 38.244 35.4103 39.486 32.9263 39.486C30.3703 39.486 28.5883 38.244 27.5803 35.76L23.6923 25.932L19.9663 35.652C18.9583 38.208 17.2123 39.486 14.7283 39.486ZM62.8136 39.594C59.8616 39.594 57.2876 39.036 55.0916 37.92C52.8956 36.804 51.1856 35.202 49.9616 33.114C48.7376 31.026 48.1256 28.56 48.1256 25.716C48.1256 22.836 48.7376 20.37 49.9616 18.318C51.1856 16.23 52.8956 14.628 55.0916 13.512C57.2876 12.396 59.8616 11.838 62.8136 11.838C65.7656 11.838 68.3396 12.396 70.5356 13.512C72.7316 14.628 74.4236 16.23 75.6116 18.318C76.8356 20.37 77.4476 22.836 77.4476 25.716C77.4476 28.56 76.8356 31.026 75.6116 33.114C74.4236 35.202 72.7316 36.804 70.5356 37.92C68.3396 39.036 65.7656 39.594 62.8136 39.594ZM62.8136 32.52C64.2536 32.52 65.4416 31.98 66.3776 30.9C67.3136 29.82 67.7816 28.092 67.7816 25.716C67.7816 23.304 67.3136 21.576 66.3776 20.532C65.4416 19.452 64.2536 18.912 62.8136 18.912C61.3376 18.912 60.1316 19.452 59.1956 20.532C58.2596 21.576 57.7916 23.304 57.7916 25.716C57.7916 28.092 58.2596 29.82 59.1956 30.9C60.1316 31.98 61.3376 32.52 62.8136 32.52ZM95.2979 39.594C92.3459 39.594 89.7719 39.036 87.5759 37.92C85.3799 36.804 83.6699 35.202 82.4459 33.114C81.2219 31.026 80.6099 28.56 80.6099 25.716C80.6099 22.836 81.2219 20.37 82.4459 18.318C83.6699 16.23 85.3799 14.628 87.5759 13.512C89.7719 12.396 92.3459 11.838 95.2979 11.838C98.2499 11.838 100.824 12.396 103.02 13.512C105.216 14.628 106.908 16.23 108.096 18.318C109.32 20.37 109.932 22.836 109.932 25.716C109.932 28.56 109.32 31.026 108.096 33.114C106.908 35.202 105.216 36.804 103.02 37.92C100.824 39.036 98.2499 39.594 95.2979 39.594ZM95.2979 32.52C96.7379 32.52 97.9259 31.98 98.8619 30.9C99.7979 29.82 100.266 28.092 100.266 25.716C100.266 23.304 99.7979 21.576 98.8619 20.532C97.9259 19.452 96.7379 18.912 95.2979 18.912C93.8219 18.912 92.6159 19.452 91.6799 20.532C90.7439 21.576 90.2759 23.304 90.2759 25.716C90.2759 28.092 90.7439 29.82 91.6799 30.9C92.6159 31.98 93.8219 32.52 95.2979 32.52ZM127.89 39.594C124.902 39.594 122.292 39.036 120.06 37.92C117.864 36.804 116.154 35.202 114.93 33.114C113.706 31.026 113.094 28.542 113.094 25.662C113.094 22.782 113.706 20.316 114.93 18.264C116.154 16.176 117.864 14.592 120.06 13.512C122.292 12.396 124.902 11.838 127.89 11.838C128.934 11.838 130.032 11.946 131.184 12.162C132.336 12.342 133.524 12.702 134.748 13.242C135.576 13.566 136.17 14.07 136.53 14.754C136.89 15.402 137.034 16.104 136.962 16.86C136.926 17.616 136.71 18.3 136.314 18.912C135.954 19.524 135.432 19.938 134.748 20.154C134.1 20.37 133.362 20.28 132.534 19.884C131.346 19.344 130.14 19.074 128.916 19.074C127.008 19.074 125.532 19.65 124.488 20.802C123.444 21.954 122.922 23.574 122.922 25.662C122.922 27.786 123.444 29.442 124.488 30.63C125.532 31.782 127.008 32.358 128.916 32.358C129.492 32.358 130.086 32.304 130.698 32.196C131.31 32.052 131.922 31.836 132.534 31.548C133.398 31.152 134.136 31.08 134.748 31.332C135.396 31.548 135.9 31.962 136.26 32.574C136.656 33.15 136.872 33.816 136.908 34.572C136.98 35.328 136.836 36.048 136.476 36.732C136.116 37.38 135.504 37.866 134.64 38.19C133.416 38.73 132.246 39.09 131.13 39.27C130.014 39.486 128.934 39.594 127.89 39.594ZM150.591 39.594C147.099 39.594 144.543 38.676 142.923 36.84C141.303 34.968 140.493 32.16 140.493 28.416V5.304C140.493 2.064 142.077 0.443998 145.245 0.443998C146.793 0.443998 147.981 0.857998 148.809 1.686C149.673 2.514 150.105 3.72 150.105 5.304V28.092C150.105 29.424 150.357 30.396 150.861 31.008C151.401 31.62 152.085 31.926 152.913 31.926C153.165 31.926 153.417 31.908 153.669 31.872C153.957 31.8 154.263 31.746 154.587 31.71C155.235 31.71 155.703 31.944 155.991 32.412C156.279 32.88 156.423 33.834 156.423 35.274C156.423 36.534 156.171 37.488 155.667 38.136C155.163 38.748 154.389 39.144 153.345 39.324C153.057 39.396 152.643 39.45 152.103 39.486C151.563 39.558 151.059 39.594 150.591 39.594ZM168.5 39.594C166.448 39.594 164.63 39.216 163.046 38.46C161.498 37.704 160.274 36.678 159.374 35.382C158.51 34.05 158.078 32.538 158.078 30.846C158.078 28.938 158.582 27.426 159.59 26.31C160.598 25.158 162.218 24.348 164.45 23.88C166.682 23.376 169.652 23.124 173.36 23.124H175.412V22.368C175.412 21.072 175.07 20.154 174.386 19.614C173.738 19.074 172.604 18.804 170.984 18.804C170.084 18.804 169.094 18.912 168.014 19.128C166.97 19.308 165.782 19.65 164.45 20.154C163.262 20.586 162.272 20.568 161.48 20.1C160.688 19.632 160.166 18.966 159.914 18.102C159.698 17.202 159.788 16.32 160.184 15.456C160.616 14.556 161.426 13.89 162.614 13.458C164.342 12.846 165.926 12.432 167.366 12.216C168.842 11.964 170.192 11.838 171.416 11.838C175.844 11.838 179.12 12.792 181.244 14.7C183.404 16.608 184.484 19.614 184.484 23.718V34.626C184.484 37.866 183.008 39.486 180.056 39.486C177.248 39.486 175.754 38.046 175.574 35.166C175.07 36.534 174.206 37.614 172.982 38.406C171.758 39.198 170.264 39.594 168.5 39.594ZM170.66 33.33C171.992 33.33 173.108 32.898 174.008 32.034C174.944 31.17 175.412 30.036 175.412 28.632V27.66H173.36C171.236 27.66 169.67 27.894 168.662 28.362C167.69 28.794 167.204 29.496 167.204 30.468C167.204 31.296 167.492 31.98 168.068 32.52C168.68 33.06 169.544 33.33 170.66 33.33ZM194.709 49.206C191.541 49.206 189.957 47.586 189.957 44.346V16.752C189.957 13.548 191.523 11.946 194.655 11.946C197.499 11.946 199.065 13.278 199.353 15.942C200.073 14.682 201.153 13.692 202.593 12.972C204.069 12.216 205.689 11.838 207.453 11.838C209.721 11.838 211.719 12.396 213.447 13.512C215.211 14.628 216.579 16.23 217.551 18.318C218.559 20.37 219.063 22.836 219.063 25.716C219.063 28.56 218.577 31.026 217.605 33.114C216.633 35.202 215.265 36.804 213.501 37.92C211.773 39.036 209.757 39.594 207.453 39.594C205.797 39.594 204.249 39.252 202.809 38.568C201.405 37.884 200.325 36.966 199.569 35.814V44.346C199.569 45.93 199.137 47.136 198.273 47.964C197.445 48.792 196.257 49.206 194.709 49.206ZM204.429 32.52C205.869 32.52 207.057 31.98 207.993 30.9C208.929 29.82 209.397 28.092 209.397 25.716C209.397 23.304 208.929 21.576 207.993 20.532C207.057 19.452 205.869 18.912 204.429 18.912C202.953 18.912 201.747 19.452 200.811 20.532C199.875 21.576 199.407 23.304 199.407 25.716C199.407 28.092 199.875 29.82 200.811 30.9C201.747 31.98 202.953 32.52 204.429 32.52Z" fill="url(#paint0_linear_1_107)"/>
    <defs>
        <linearGradient id="paint0_linear_1_107" x1="-25" y1="-16" x2="-25" y2="58" gradientUnits="userSpaceOnUse">
            <stop stop-color="#2DA3FF"/>
            <stop offset="1" stop-color="#146AFF"/>
        </linearGradient>
    </defs>
</svg>
